<?xml version="1.0" encoding="UTF-8" standalone="no"?>
<!DOCTYPE svg PUBLIC "-//W3C//DTD SVG 1.1//EN"
 "http://www.w3.org/Graphics/SVG/1.1/DTD/svg11.dtd">
<!-- Generated by graphviz version 12.1.2 (20240928.0832)
 -->
<!-- Title: Master Pages: 1 -->
<svg width="178pt" height="149pt"
 viewBox="0.00 0.00 177.53 148.53" xmlns="http://www.w3.org/2000/svg" xmlns:xlink="http://www.w3.org/1999/xlink">
<g id="graph0" class="graph" transform="scale(1 1) rotate(0) translate(4 144.53)">
<title>Master</title>
<polygon fill="white" stroke="none" points="-4,4 -4,-144.53 173.53,-144.53 173.53,4 -4,4"/>
<!-- 0 -->
<g id="node1" class="node">
<title>0</title>
<ellipse fill="none" stroke="black" cx="36.9" cy="-37.78" rx="27" ry="18"/>
<text text-anchor="middle" x="36.9" y="-32.73" font-family="Times,serif" font-size="14.00">0</text>
</g>
<!-- 1 -->
<g id="node2" class="node">
<title>1</title>
<ellipse fill="none" stroke="black" cx="142.53" cy="-76.11" rx="27" ry="18"/>
<text text-anchor="middle" x="142.53" y="-71.06" font-family="Times,serif" font-size="14.00">1</text>
</g>
<!-- 0&#45;&gt;1 -->
<g id="edge1" class="edge">
<title>0&#45;&gt;1</title>
<path fill="none" stroke="black" d="M56.38,-50.75C69.97,-56.99 88.52,-64.02 104.93,-69.29"/>
<polygon fill="black" stroke="black" points="103.83,-72.61 114.42,-72.18 105.87,-65.92 103.83,-72.61"/>
</g>
<!-- 2 -->
<g id="node3" class="node">
<title>2</title>
<ellipse fill="none" stroke="black" cx="102.4" cy="-18" rx="27" ry="18"/>
<text text-anchor="middle" x="102.4" y="-12.95" font-family="Times,serif" font-size="14.00">2</text>
</g>
<!-- 0&#45;&gt;2 -->
<g id="edge2" class="edge">
<title>0&#45;&gt;2</title>
<path fill="none" stroke="black" d="M64.32,-36.39C66.8,-35.75 69.32,-35.04 71.83,-34.28"/>
<polygon fill="black" stroke="black" points="72.73,-37.67 81.09,-31.17 70.5,-31.04 72.73,-37.67"/>
</g>
<!-- 3 -->
<g id="node4" class="node">
<title>3</title>
<ellipse fill="none" stroke="black" cx="27" cy="-103.08" rx="27" ry="18"/>
<text text-anchor="middle" x="27" y="-98.03" font-family="Times,serif" font-size="14.00">3</text>
</g>
<!-- 0&#45;&gt;3 -->
<g id="edge3" class="edge">
<title>0&#45;&gt;3</title>
<path fill="none" stroke="black" d="M28.09,-55.05C26.66,-60.82 25.47,-67.41 24.66,-73.83"/>
<polygon fill="black" stroke="black" points="21.2,-73.2 23.78,-83.47 28.18,-73.83 21.2,-73.2"/>
</g>
<!-- 4 -->
<g id="node5" class="node">
<title>4</title>
<ellipse fill="none" stroke="black" cx="93.91" cy="-122.53" rx="27" ry="18"/>
<text text-anchor="middle" x="93.91" y="-117.48" font-family="Times,serif" font-size="14.00">4</text>
</g>
<!-- 0&#45;&gt;4 -->
<g id="edge4" class="edge">
<title>0&#45;&gt;4</title>
<path fill="none" stroke="black" d="M42.46,-55.48C49.14,-68.11 60.17,-85.16 70.38,-98.93"/>
<polygon fill="black" stroke="black" points="67.45,-100.86 76.33,-106.64 73,-96.59 67.45,-100.86"/>
</g>
<!-- 1&#45;&gt;0 -->
<g id="edge5" class="edge">
<title>1&#45;&gt;0</title>
<path fill="none" stroke="black" d="M123.04,-63.14C109.45,-56.9 90.9,-49.86 74.49,-44.6"/>
<polygon fill="black" stroke="black" points="75.59,-41.27 65.01,-41.71 73.55,-47.97 75.59,-41.27"/>
</g>
<!-- 1&#45;&gt;2 -->
<g id="edge6" class="edge">
<title>1&#45;&gt;2</title>
<path fill="none" stroke="black" d="M137.3,-58.06C134.35,-52.72 130.59,-46.82 126.62,-41.21"/>
<polygon fill="black" stroke="black" points="129.56,-39.3 120.75,-33.41 123.97,-43.51 129.56,-39.3"/>
</g>
<!-- 1&#45;&gt;3 -->
<g id="edge7" class="edge">
<title>1&#45;&gt;3</title>
<path fill="none" stroke="black" d="M115.3,-76.57C98.77,-79.24 77.58,-84.02 60.09,-88.95"/>
<polygon fill="black" stroke="black" points="59.26,-85.54 50.67,-91.75 61.25,-92.25 59.26,-85.54"/>
</g>
<!-- 1&#45;&gt;4 -->
<g id="edge8" class="edge">
<title>1&#45;&gt;4</title>
<path fill="none" stroke="black" d="M121.06,-87.66C117.65,-90.57 114.16,-93.78 110.87,-97.05"/>
<polygon fill="black" stroke="black" points="108.58,-94.38 104.27,-104.06 113.67,-99.18 108.58,-94.38"/>
</g>
<!-- 2&#45;&gt;0 -->
<g id="edge9" class="edge">
<title>2&#45;&gt;0</title>
<path fill="none" stroke="black" d="M74.98,-19.38C72.5,-20.03 69.98,-20.74 67.47,-21.5"/>
<polygon fill="black" stroke="black" points="66.57,-18.11 58.21,-24.61 68.8,-24.74 66.57,-18.11"/>
</g>
<!-- 2&#45;&gt;1 -->
<g id="edge10" class="edge">
<title>2&#45;&gt;1</title>
<path fill="none" stroke="black" d="M107.63,-36.05C110.59,-41.39 114.35,-47.29 118.32,-52.9"/>
<polygon fill="black" stroke="black" points="115.37,-54.81 124.18,-60.69 120.97,-50.6 115.37,-54.81"/>
</g>
<!-- 2&#45;&gt;3 -->
<g id="edge11" class="edge">
<title>2&#45;&gt;3</title>
<path fill="none" stroke="black" d="M83.39,-31.16C70.63,-43.34 54.19,-61.63 42.27,-76.77"/>
<polygon fill="black" stroke="black" points="39.67,-74.4 36.43,-84.49 45.25,-78.63 39.67,-74.4"/>
</g>
<!-- 2&#45;&gt;4 -->
<g id="edge12" class="edge">
<title>2&#45;&gt;4</title>
<path fill="none" stroke="black" d="M95.68,-35.78C92.76,-51.48 90.59,-74.68 90.17,-93.14"/>
<polygon fill="black" stroke="black" points="86.67,-92.94 90.15,-102.94 93.67,-92.95 86.67,-92.94"/>
</g>
<!-- 3&#45;&gt;0 -->
<g id="edge13" class="edge">
<title>3&#45;&gt;0</title>
<path fill="none" stroke="black" d="M35.81,-85.8C37.23,-80.04 38.43,-73.44 39.24,-67.02"/>
<polygon fill="black" stroke="black" points="42.69,-67.66 40.11,-57.38 35.72,-67.02 42.69,-67.66"/>
</g>
<!-- 3&#45;&gt;1 -->
<g id="edge14" class="edge">
<title>3&#45;&gt;1</title>
<path fill="none" stroke="black" d="M54.23,-102.61C70.76,-99.94 91.95,-95.16 109.44,-90.24"/>
<polygon fill="black" stroke="black" points="110.27,-93.64 118.86,-87.43 108.27,-86.93 110.27,-93.64"/>
</g>
<!-- 3&#45;&gt;2 -->
<g id="edge15" class="edge">
<title>3&#45;&gt;2</title>
<path fill="none" stroke="black" d="M46.02,-89.92C58.77,-77.74 75.22,-59.44 87.13,-44.31"/>
<polygon fill="black" stroke="black" points="89.73,-46.67 92.98,-36.58 84.15,-42.45 89.73,-46.67"/>
</g>
<!-- 3&#45;&gt;4 -->
<g id="edge16" class="edge">
<title>3&#45;&gt;4</title>
<path fill="none" stroke="black" d="M47.13,-115.57C49.91,-116.58 52.83,-117.55 55.81,-118.46"/>
<polygon fill="black" stroke="black" points="54.6,-121.76 65.17,-121.04 56.46,-115.01 54.6,-121.76"/>
</g>
<!-- 4&#45;&gt;0 -->
<g id="edge17" class="edge">
<title>4&#45;&gt;0</title>
<path fill="none" stroke="black" d="M88.35,-104.83C81.67,-92.2 70.63,-75.15 60.42,-61.38"/>
<polygon fill="black" stroke="black" points="63.35,-59.45 54.47,-53.67 57.81,-63.72 63.35,-59.45"/>
</g>
<!-- 4&#45;&gt;1 -->
<g id="edge18" class="edge">
<title>4&#45;&gt;1</title>
<path fill="none" stroke="black" d="M115.38,-110.98C118.79,-108.07 122.27,-104.86 125.56,-101.59"/>
<polygon fill="black" stroke="black" points="127.86,-104.26 132.17,-94.58 122.76,-99.46 127.86,-104.26"/>
</g>
<!-- 4&#45;&gt;2 -->
<g id="edge19" class="edge">
<title>4&#45;&gt;2</title>
<path fill="none" stroke="black" d="M100.64,-104.75C103.56,-89.05 105.73,-65.85 106.15,-47.39"/>
<polygon fill="black" stroke="black" points="109.65,-47.59 106.16,-37.59 102.65,-47.58 109.65,-47.59"/>
</g>
<!-- 4&#45;&gt;3 -->
<g id="edge20" class="edge">
<title>4&#45;&gt;3</title>
<path fill="none" stroke="black" d="M73.78,-110.04C71,-109.03 68.08,-108.06 65.1,-107.15"/>
<polygon fill="black" stroke="black" points="66.31,-103.85 55.74,-104.56 64.45,-110.6 66.31,-103.85"/>
</g>
</g>
</svg>
