<?xml version="1.0" encoding="UTF-8" standalone="no"?>
<!DOCTYPE svg PUBLIC "-//W3C//DTD SVG 1.1//EN"
 "http://www.w3.org/Graphics/SVG/1.1/DTD/svg11.dtd">
<!-- Generated by graphviz version 12.1.2 (20240928.0832)
 -->
<!-- Title: Master Pages: 1 -->
<svg width="169pt" height="152pt"
 viewBox="0.00 0.00 169.18 151.61" xmlns="http://www.w3.org/2000/svg" xmlns:xlink="http://www.w3.org/1999/xlink">
<g id="graph0" class="graph" transform="scale(1 1) rotate(0) translate(4 147.61)">
<title>Master</title>
<polygon fill="white" stroke="none" points="-4,4 -4,-147.61 165.18,-147.61 165.18,4 -4,4"/>
<!-- 0 -->
<g id="node1" class="node">
<title>0</title>
<ellipse fill="none" stroke="black" cx="27" cy="-63.19" rx="27" ry="18"/>
<text text-anchor="middle" x="27" y="-58.14" font-family="Times,serif" font-size="14.00">0</text>
</g>
<!-- 1 -->
<g id="node2" class="node">
<title>1</title>
<ellipse fill="none" stroke="black" cx="134.18" cy="-80.42" rx="27" ry="18"/>
<text text-anchor="middle" x="134.18" y="-75.37" font-family="Times,serif" font-size="14.00">1</text>
</g>
<!-- 0&#45;&gt;1 -->
<g id="edge1" class="edge">
<title>0&#45;&gt;1</title>
<path fill="none" stroke="black" d="M50.41,-72.78C63.73,-75.96 80.74,-78.93 95.96,-80.82"/>
<polygon fill="black" stroke="black" points="95.32,-84.27 105.64,-81.88 96.08,-77.31 95.32,-84.27"/>
</g>
<!-- 2 -->
<g id="node3" class="node">
<title>2</title>
<ellipse fill="none" stroke="black" cx="90.5" cy="-18" rx="27" ry="18"/>
<text text-anchor="middle" x="90.5" y="-12.95" font-family="Times,serif" font-size="14.00">2</text>
</g>
<!-- 0&#45;&gt;2 -->
<g id="edge2" class="edge">
<title>0&#45;&gt;2</title>
<path fill="none" stroke="black" d="M50.76,-54.04C56.83,-50.26 63.31,-45.77 69.25,-41.24"/>
<polygon fill="black" stroke="black" points="71.23,-44.14 76.82,-35.14 66.84,-38.69 71.23,-44.14"/>
</g>
<!-- 3 -->
<g id="node4" class="node">
<title>3</title>
<ellipse fill="none" stroke="black" cx="70.68" cy="-125.61" rx="27" ry="18"/>
<text text-anchor="middle" x="70.68" y="-120.56" font-family="Times,serif" font-size="14.00">3</text>
</g>
<!-- 0&#45;&gt;3 -->
<g id="edge3" class="edge">
<title>0&#45;&gt;3</title>
<path fill="none" stroke="black" d="M32.38,-80.99C36.19,-87.83 41.34,-95.71 46.66,-102.93"/>
<polygon fill="black" stroke="black" points="43.57,-104.67 52.47,-110.42 49.1,-100.37 43.57,-104.67"/>
</g>
<!-- 1&#45;&gt;0 -->
<g id="edge4" class="edge">
<title>1&#45;&gt;0</title>
<path fill="none" stroke="black" d="M110.77,-70.82C97.45,-67.65 80.43,-64.68 65.22,-62.79"/>
<polygon fill="black" stroke="black" points="65.86,-59.34 55.54,-61.73 65.1,-66.3 65.86,-59.34"/>
</g>
<!-- 1&#45;&gt;2 -->
<g id="edge5" class="edge">
<title>1&#45;&gt;2</title>
<path fill="none" stroke="black" d="M128.8,-62.62C124.99,-55.78 119.84,-47.9 114.52,-40.68"/>
<polygon fill="black" stroke="black" points="117.61,-38.94 108.71,-33.19 112.08,-43.24 117.61,-38.94"/>
</g>
<!-- 1&#45;&gt;3 -->
<g id="edge6" class="edge">
<title>1&#45;&gt;3</title>
<path fill="none" stroke="black" d="M110.42,-89.56C104.34,-93.35 97.86,-97.84 91.93,-102.37"/>
<polygon fill="black" stroke="black" points="89.94,-99.47 84.35,-108.47 94.34,-104.92 89.94,-99.47"/>
</g>
<!-- 2&#45;&gt;0 -->
<g id="edge7" class="edge">
<title>2&#45;&gt;0</title>
<path fill="none" stroke="black" d="M66.74,-27.14C60.67,-30.92 54.19,-35.42 48.25,-39.95"/>
<polygon fill="black" stroke="black" points="46.26,-37.05 40.67,-46.05 50.66,-42.5 46.26,-37.05"/>
</g>
<!-- 2&#45;&gt;1 -->
<g id="edge8" class="edge">
<title>2&#45;&gt;1</title>
<path fill="none" stroke="black" d="M95.88,-35.8C99.68,-42.65 104.84,-50.52 110.16,-57.75"/>
<polygon fill="black" stroke="black" points="107.07,-59.48 115.97,-65.23 112.6,-55.19 107.07,-59.48"/>
</g>
<!-- 2&#45;&gt;3 -->
<g id="edge9" class="edge">
<title>2&#45;&gt;3</title>
<path fill="none" stroke="black" d="M82.01,-35.31C77.24,-51.68 72.38,-76.57 69.98,-96.08"/>
<polygon fill="black" stroke="black" points="66.51,-95.6 68.98,-105.9 73.48,-96.31 66.51,-95.6"/>
</g>
<!-- 3&#45;&gt;0 -->
<g id="edge10" class="edge">
<title>3&#45;&gt;0</title>
<path fill="none" stroke="black" d="M65.3,-107.8C61.49,-100.96 56.34,-93.09 51.02,-85.86"/>
<polygon fill="black" stroke="black" points="54.11,-84.13 45.21,-78.38 48.58,-88.42 54.11,-84.13"/>
</g>
<!-- 3&#45;&gt;1 -->
<g id="edge11" class="edge">
<title>3&#45;&gt;1</title>
<path fill="none" stroke="black" d="M94.44,-116.47C100.51,-112.69 106.99,-108.19 112.93,-103.66"/>
<polygon fill="black" stroke="black" points="114.91,-106.56 120.5,-97.56 110.52,-101.11 114.91,-106.56"/>
</g>
<!-- 3&#45;&gt;2 -->
<g id="edge12" class="edge">
<title>3&#45;&gt;2</title>
<path fill="none" stroke="black" d="M79.17,-108.3C83.94,-91.93 88.8,-67.04 91.19,-47.53"/>
<polygon fill="black" stroke="black" points="94.66,-48.01 92.19,-37.71 87.7,-47.3 94.66,-48.01"/>
</g>
</g>
</svg>
