<?xml version="1.0" encoding="UTF-8" standalone="no"?>
<!DOCTYPE svg PUBLIC "-//W3C//DTD SVG 1.1//EN"
 "http://www.w3.org/Graphics/SVG/1.1/DTD/svg11.dtd">
<!-- Generated by graphviz version 12.1.2 (20240928.0832)
 -->
<!-- Title: Master Pages: 1 -->
<svg width="75pt" height="188pt"
 viewBox="0.00 0.00 74.53 188.00" xmlns="http://www.w3.org/2000/svg" xmlns:xlink="http://www.w3.org/1999/xlink">
<g id="graph0" class="graph" transform="scale(1 1) rotate(0) translate(4 184)">
<title>Master</title>
<polygon fill="white" stroke="none" points="-4,4 -4,-184 70.53,-184 70.53,4 -4,4"/>
<!-- 0 -->
<g id="node1" class="node">
<title>0</title>
<ellipse fill="none" stroke="black" cx="27" cy="-162" rx="27" ry="18"/>
<text text-anchor="middle" x="27" y="-156.95" font-family="Times,serif" font-size="14.00">0</text>
</g>
<!-- 1 -->
<g id="node2" class="node">
<title>1</title>
<ellipse fill="none" stroke="black" cx="27" cy="-90" rx="27" ry="18"/>
<text text-anchor="middle" x="27" y="-84.95" font-family="Times,serif" font-size="14.00">1</text>
</g>
<!-- 0&#45;&gt;1 -->
<g id="edge1" class="edge">
<title>0&#45;&gt;1</title>
<path fill="none" stroke="black" d="M21.12,-144.05C20.33,-136.57 20.08,-127.58 20.37,-119.14"/>
<polygon fill="black" stroke="black" points="23.85,-119.51 21.04,-109.3 16.87,-119.04 23.85,-119.51"/>
</g>
<!-- 2 -->
<g id="node3" class="node">
<title>2</title>
<ellipse fill="none" stroke="black" cx="27" cy="-18" rx="27" ry="18"/>
<text text-anchor="middle" x="27" y="-12.95" font-family="Times,serif" font-size="14.00">2</text>
</g>
<!-- 0&#45;&gt;2 -->
<g id="edge2" class="edge">
<title>0&#45;&gt;2</title>
<path fill="none" stroke="black" d="M40.75,-146.07C48.96,-136.1 58.62,-122.25 63,-108 67.7,-92.71 67.7,-87.29 63,-72 59.82,-61.65 53.85,-51.51 47.67,-42.91"/>
<polygon fill="black" stroke="black" points="50.55,-40.91 41.67,-35.13 45.01,-45.19 50.55,-40.91"/>
</g>
<!-- 1&#45;&gt;0 -->
<g id="edge3" class="edge">
<title>1&#45;&gt;0</title>
<path fill="none" stroke="black" d="M32.86,-107.79C33.66,-115.25 33.92,-124.24 33.64,-132.69"/>
<polygon fill="black" stroke="black" points="30.16,-132.33 32.98,-142.54 37.14,-132.8 30.16,-132.33"/>
</g>
<!-- 1&#45;&gt;2 -->
<g id="edge4" class="edge">
<title>1&#45;&gt;2</title>
<path fill="none" stroke="black" d="M21.12,-72.05C20.33,-64.57 20.08,-55.58 20.37,-47.14"/>
<polygon fill="black" stroke="black" points="23.85,-47.51 21.04,-37.3 16.87,-47.04 23.85,-47.51"/>
</g>
<!-- 2&#45;&gt;1 -->
<g id="edge5" class="edge">
<title>2&#45;&gt;1</title>
<path fill="none" stroke="black" d="M32.86,-35.79C33.66,-43.25 33.92,-52.24 33.64,-60.69"/>
<polygon fill="black" stroke="black" points="30.16,-60.33 32.98,-70.54 37.14,-60.8 30.16,-60.33"/>
</g>
</g>
</svg>
