<?xml version="1.0" encoding="UTF-8" standalone="no"?>
<!DOCTYPE svg PUBLIC "-//W3C//DTD SVG 1.1//EN"
 "http://www.w3.org/Graphics/SVG/1.1/DTD/svg11.dtd">
<!-- Generated by graphviz version 12.1.2 (20240928.0832)
 -->
<!-- Title: Master Pages: 1 -->
<svg width="94pt" height="188pt"
 viewBox="0.00 0.00 94.00 188.00" xmlns="http://www.w3.org/2000/svg" xmlns:xlink="http://www.w3.org/1999/xlink">
<g id="graph0" class="graph" transform="scale(1 1) rotate(0) translate(4 184)">
<title>Master</title>
<polygon fill="white" stroke="none" points="-4,4 -4,-184 90,-184 90,4 -4,4"/>
<!-- 0 -->
<g id="node1" class="node">
<title>0</title>
<ellipse fill="none" stroke="black" cx="59" cy="-162" rx="27" ry="18"/>
<text text-anchor="middle" x="59" y="-156.95" font-family="Times,serif" font-size="14.00">0</text>
</g>
<!-- 1 -->
<g id="node2" class="node">
<title>1</title>
<ellipse fill="none" stroke="black" cx="27" cy="-90" rx="27" ry="18"/>
<text text-anchor="middle" x="27" y="-84.95" font-family="Times,serif" font-size="14.00">1</text>
</g>
<!-- 0&#45;&gt;1 -->
<g id="edge1" class="edge">
<title>0&#45;&gt;1</title>
<path fill="none" stroke="black" d="M46.38,-145.81C41.81,-137.92 36.97,-128.03 33.1,-118.83"/>
<polygon fill="black" stroke="black" points="36.37,-117.59 29.48,-109.54 29.85,-120.13 36.37,-117.59"/>
</g>
<!-- 2 -->
<g id="node3" class="node">
<title>2</title>
<ellipse fill="none" stroke="black" cx="59" cy="-18" rx="27" ry="18"/>
<text text-anchor="middle" x="59" y="-12.95" font-family="Times,serif" font-size="14.00">2</text>
</g>
<!-- 0&#45;&gt;2 -->
<g id="edge2" class="edge">
<title>0&#45;&gt;2</title>
<path fill="none" stroke="black" d="M52.82,-144.31C52.49,-133.88 53.54,-120.17 54,-108 54.6,-92.01 54.6,-87.99 54,-72 53.7,-63.92 53.13,-55.16 52.88,-47.13"/>
<polygon fill="black" stroke="black" points="56.38,-47.19 52.83,-37.2 49.38,-47.22 56.38,-47.19"/>
</g>
<!-- 1&#45;&gt;0 -->
<g id="edge3" class="edge">
<title>1&#45;&gt;0</title>
<path fill="none" stroke="black" d="M39.63,-106.2C44.17,-114.05 48.98,-123.88 52.84,-133.04"/>
<polygon fill="black" stroke="black" points="49.56,-134.24 56.46,-142.29 56.08,-131.7 49.56,-134.24"/>
</g>
<!-- 1&#45;&gt;2 -->
<g id="edge4" class="edge">
<title>1&#45;&gt;2</title>
<path fill="none" stroke="black" d="M28.99,-71.7C31.92,-63.43 36.32,-53.38 40.93,-44.28"/>
<polygon fill="black" stroke="black" points="43.98,-46 45.65,-35.53 37.82,-42.67 43.98,-46"/>
</g>
<!-- 2&#45;&gt;0 -->
<g id="edge5" class="edge">
<title>2&#45;&gt;0</title>
<path fill="none" stroke="black" d="M68.25,-35.22C70.46,-45.7 71.53,-59.64 72,-72 72.6,-87.99 72.6,-92.01 72,-108 71.69,-116.3 71.1,-125.32 70.08,-133.52"/>
<polygon fill="black" stroke="black" points="66.64,-132.86 68.49,-143.29 73.55,-133.98 66.64,-132.86"/>
</g>
<!-- 2&#45;&gt;1 -->
<g id="edge6" class="edge">
<title>2&#45;&gt;1</title>
<path fill="none" stroke="black" d="M57.07,-36.13C54.12,-44.5 49.64,-54.74 44.94,-63.97"/>
<polygon fill="black" stroke="black" points="42.02,-62.02 40.34,-72.48 48.18,-65.35 42.02,-62.02"/>
</g>
</g>
</svg>
