<?xml version="1.0" encoding="UTF-8" standalone="no"?>
<!DOCTYPE svg PUBLIC "-//W3C//DTD SVG 1.1//EN"
 "http://www.w3.org/Graphics/SVG/1.1/DTD/svg11.dtd">
<!-- Generated by graphviz version 12.1.2 (20240928.0832)
 -->
<!-- Pages: 1 -->
<svg width="854pt" height="260pt"
 viewBox="0.00 0.00 854.00 260.00" xmlns="http://www.w3.org/2000/svg" xmlns:xlink="http://www.w3.org/1999/xlink">
<g id="graph0" class="graph" transform="scale(1 1) rotate(0) translate(4 256)">
<polygon fill="white" stroke="none" points="-4,4 -4,-256 850,-256 850,4 -4,4"/>
<!-- root -->
<g id="node1" class="node">
<title>root</title>
<ellipse fill="none" stroke="red" cx="495" cy="-234" rx="27" ry="18"/>
<text text-anchor="middle" x="495" y="-228.95" font-family="Times,serif" font-size="14.00">root</text>
</g>
<!-- 1 -->
<g id="node2" class="node">
<title>1</title>
<ellipse fill="none" stroke="black" cx="207" cy="-162" rx="27" ry="18"/>
<text text-anchor="middle" x="207" y="-156.95" font-family="Times,serif" font-size="14.00">1</text>
</g>
<!-- root&#45;&gt;1 -->
<g id="edge1" class="edge">
<title>root&#45;&gt;1</title>
<path fill="none" stroke="black" d="M469.69,-226.85C418.48,-214.4 302.4,-186.19 243.19,-171.8"/>
<polygon fill="black" stroke="black" points="244.16,-168.43 233.62,-169.47 242.51,-175.23 244.16,-168.43"/>
</g>
<!-- 2 -->
<g id="node9" class="node">
<title>2</title>
<ellipse fill="none" stroke="black" cx="463" cy="-162" rx="27" ry="18"/>
<text text-anchor="middle" x="463" y="-156.95" font-family="Times,serif" font-size="14.00">2</text>
</g>
<!-- root&#45;&gt;2 -->
<g id="edge8" class="edge">
<title>root&#45;&gt;2</title>
<path fill="none" stroke="black" d="M487.42,-216.41C483.79,-208.48 479.36,-198.78 475.27,-189.84"/>
<polygon fill="black" stroke="black" points="478.5,-188.49 471.16,-180.85 472.13,-191.4 478.5,-188.49"/>
</g>
<!-- 222 -->
<g id="node15" class="node">
<title>222</title>
<ellipse fill="none" stroke="red" cx="531" cy="-18" rx="27" ry="18"/>
<text text-anchor="middle" x="531" y="-12.95" font-family="Times,serif" font-size="14.00">222</text>
</g>
<!-- root&#45;&gt;222 -->
<g id="edge22" class="edge">
<title>root&#45;&gt;222</title>
<path fill="none" stroke="red" d="M497.89,-215.85C504.06,-179.14 518.61,-92.66 526.2,-47.53"/>
<polygon fill="red" stroke="red" points="529.64,-48.17 527.85,-37.73 522.74,-47.01 529.64,-48.17"/>
</g>
<!-- 3 -->
<g id="node16" class="node">
<title>3</title>
<ellipse fill="none" stroke="black" cx="639" cy="-162" rx="27" ry="18"/>
<text text-anchor="middle" x="639" y="-156.95" font-family="Times,serif" font-size="14.00">3</text>
</g>
<!-- root&#45;&gt;3 -->
<g id="edge15" class="edge">
<title>root&#45;&gt;3</title>
<path fill="none" stroke="black" d="M516.56,-222.52C540.66,-210.8 579.92,-191.72 607.47,-178.32"/>
<polygon fill="black" stroke="black" points="608.94,-181.5 616.4,-173.98 605.88,-175.21 608.94,-181.5"/>
</g>
<!-- 11 -->
<g id="node3" class="node">
<title>11</title>
<ellipse fill="none" stroke="black" cx="99" cy="-90" rx="27" ry="18"/>
<text text-anchor="middle" x="99" y="-84.95" font-family="Times,serif" font-size="14.00">11</text>
</g>
<!-- 1&#45;&gt;11 -->
<g id="edge2" class="edge">
<title>1&#45;&gt;11</title>
<path fill="none" stroke="black" d="M188.19,-148.81C171.41,-137.93 146.61,-121.86 127.41,-109.42"/>
<polygon fill="black" stroke="black" points="129.52,-106.61 119.23,-104.11 125.72,-112.49 129.52,-106.61"/>
</g>
<!-- 12 -->
<g id="node6" class="node">
<title>12</title>
<ellipse fill="none" stroke="black" cx="207" cy="-90" rx="27" ry="18"/>
<text text-anchor="middle" x="207" y="-84.95" font-family="Times,serif" font-size="14.00">12</text>
</g>
<!-- 1&#45;&gt;12 -->
<g id="edge5" class="edge">
<title>1&#45;&gt;12</title>
<path fill="none" stroke="black" d="M207,-143.7C207,-136.41 207,-127.73 207,-119.54"/>
<polygon fill="black" stroke="black" points="210.5,-119.62 207,-109.62 203.5,-119.62 210.5,-119.62"/>
</g>
<!-- 111 -->
<g id="node4" class="node">
<title>111</title>
<ellipse fill="none" stroke="black" cx="27" cy="-18" rx="27" ry="18"/>
<text text-anchor="middle" x="27" y="-12.95" font-family="Times,serif" font-size="14.00">111</text>
</g>
<!-- 11&#45;&gt;111 -->
<g id="edge3" class="edge">
<title>11&#45;&gt;111</title>
<path fill="none" stroke="black" d="M84.08,-74.5C74.23,-64.92 61.14,-52.19 49.97,-41.34"/>
<polygon fill="black" stroke="black" points="52.59,-39 42.98,-34.54 47.71,-44.02 52.59,-39"/>
</g>
<!-- 112 -->
<g id="node5" class="node">
<title>112</title>
<ellipse fill="none" stroke="black" cx="99" cy="-18" rx="27" ry="18"/>
<text text-anchor="middle" x="99" y="-12.95" font-family="Times,serif" font-size="14.00">112</text>
</g>
<!-- 11&#45;&gt;112 -->
<g id="edge4" class="edge">
<title>11&#45;&gt;112</title>
<path fill="none" stroke="black" d="M99,-71.7C99,-64.41 99,-55.73 99,-47.54"/>
<polygon fill="black" stroke="black" points="102.5,-47.62 99,-37.62 95.5,-47.62 102.5,-47.62"/>
</g>
<!-- 121 -->
<g id="node7" class="node">
<title>121</title>
<ellipse fill="none" stroke="black" cx="171" cy="-18" rx="27" ry="18"/>
<text text-anchor="middle" x="171" y="-12.95" font-family="Times,serif" font-size="14.00">121</text>
</g>
<!-- 12&#45;&gt;121 -->
<g id="edge6" class="edge">
<title>12&#45;&gt;121</title>
<path fill="none" stroke="black" d="M198.65,-72.76C194.42,-64.55 189.19,-54.37 184.42,-45.09"/>
<polygon fill="black" stroke="black" points="187.68,-43.79 180,-36.49 181.46,-46.99 187.68,-43.79"/>
</g>
<!-- 122 -->
<g id="node8" class="node">
<title>122</title>
<ellipse fill="none" stroke="black" cx="243" cy="-18" rx="27" ry="18"/>
<text text-anchor="middle" x="243" y="-12.95" font-family="Times,serif" font-size="14.00">122</text>
</g>
<!-- 12&#45;&gt;122 -->
<g id="edge7" class="edge">
<title>12&#45;&gt;122</title>
<path fill="none" stroke="black" d="M215.35,-72.76C219.58,-64.55 224.81,-54.37 229.58,-45.09"/>
<polygon fill="black" stroke="black" points="232.54,-46.99 234,-36.49 226.32,-43.79 232.54,-46.99"/>
</g>
<!-- 21 -->
<g id="node10" class="node">
<title>21</title>
<ellipse fill="none" stroke="black" cx="387" cy="-90" rx="27" ry="18"/>
<text text-anchor="middle" x="387" y="-84.95" font-family="Times,serif" font-size="14.00">21</text>
</g>
<!-- 2&#45;&gt;21 -->
<g id="edge9" class="edge">
<title>2&#45;&gt;21</title>
<path fill="none" stroke="black" d="M447.62,-146.83C437.01,-137.06 422.7,-123.88 410.65,-112.78"/>
<polygon fill="black" stroke="black" points="413.2,-110.37 403.47,-106.17 408.45,-115.52 413.2,-110.37"/>
</g>
<!-- 22 -->
<g id="node13" class="node">
<title>22</title>
<ellipse fill="none" stroke="black" cx="463" cy="-90" rx="27" ry="18"/>
<text text-anchor="middle" x="463" y="-84.95" font-family="Times,serif" font-size="14.00">22</text>
</g>
<!-- 2&#45;&gt;22 -->
<g id="edge12" class="edge">
<title>2&#45;&gt;22</title>
<path fill="none" stroke="black" d="M463,-143.7C463,-136.41 463,-127.73 463,-119.54"/>
<polygon fill="black" stroke="black" points="466.5,-119.62 463,-109.62 459.5,-119.62 466.5,-119.62"/>
</g>
<!-- 211 -->
<g id="node11" class="node">
<title>211</title>
<ellipse fill="none" stroke="black" cx="315" cy="-18" rx="27" ry="18"/>
<text text-anchor="middle" x="315" y="-12.95" font-family="Times,serif" font-size="14.00">211</text>
</g>
<!-- 21&#45;&gt;211 -->
<g id="edge10" class="edge">
<title>21&#45;&gt;211</title>
<path fill="none" stroke="black" d="M372.08,-74.5C362.23,-64.92 349.14,-52.19 337.97,-41.34"/>
<polygon fill="black" stroke="black" points="340.59,-39 330.98,-34.54 335.71,-44.02 340.59,-39"/>
</g>
<!-- 212 -->
<g id="node12" class="node">
<title>212</title>
<ellipse fill="none" stroke="black" cx="387" cy="-18" rx="27" ry="18"/>
<text text-anchor="middle" x="387" y="-12.95" font-family="Times,serif" font-size="14.00">212</text>
</g>
<!-- 21&#45;&gt;212 -->
<g id="edge11" class="edge">
<title>21&#45;&gt;212</title>
<path fill="none" stroke="black" d="M387,-71.7C387,-64.41 387,-55.73 387,-47.54"/>
<polygon fill="black" stroke="black" points="390.5,-47.62 387,-37.62 383.5,-47.62 390.5,-47.62"/>
</g>
<!-- 221 -->
<g id="node14" class="node">
<title>221</title>
<ellipse fill="none" stroke="black" cx="459" cy="-18" rx="27" ry="18"/>
<text text-anchor="middle" x="459" y="-12.95" font-family="Times,serif" font-size="14.00">221</text>
</g>
<!-- 22&#45;&gt;221 -->
<g id="edge13" class="edge">
<title>22&#45;&gt;221</title>
<path fill="none" stroke="black" d="M462.01,-71.7C461.59,-64.41 461.1,-55.73 460.63,-47.54"/>
<polygon fill="black" stroke="black" points="464.13,-47.4 460.06,-37.62 457.14,-47.8 464.13,-47.4"/>
</g>
<!-- 22&#45;&gt;222 -->
<g id="edge14" class="edge">
<title>22&#45;&gt;222</title>
<path fill="none" stroke="black" d="M477.09,-74.5C486.3,-65.02 498.52,-52.44 508.99,-41.66"/>
<polygon fill="black" stroke="black" points="511.42,-44.18 515.87,-34.57 506.4,-39.31 511.42,-44.18"/>
</g>
<!-- 31 -->
<g id="node17" class="node">
<title>31</title>
<ellipse fill="none" stroke="black" cx="639" cy="-90" rx="27" ry="18"/>
<text text-anchor="middle" x="639" y="-84.95" font-family="Times,serif" font-size="14.00">31</text>
</g>
<!-- 3&#45;&gt;31 -->
<g id="edge16" class="edge">
<title>3&#45;&gt;31</title>
<path fill="none" stroke="black" d="M639,-143.7C639,-136.41 639,-127.73 639,-119.54"/>
<polygon fill="black" stroke="black" points="642.5,-119.62 639,-109.62 635.5,-119.62 642.5,-119.62"/>
</g>
<!-- 32 -->
<g id="node20" class="node">
<title>32</title>
<ellipse fill="none" stroke="black" cx="747" cy="-90" rx="27" ry="18"/>
<text text-anchor="middle" x="747" y="-84.95" font-family="Times,serif" font-size="14.00">32</text>
</g>
<!-- 3&#45;&gt;32 -->
<g id="edge19" class="edge">
<title>3&#45;&gt;32</title>
<path fill="none" stroke="black" d="M657.81,-148.81C674.59,-137.93 699.39,-121.86 718.59,-109.42"/>
<polygon fill="black" stroke="black" points="720.28,-112.49 726.77,-104.11 716.48,-106.61 720.28,-112.49"/>
</g>
<!-- 311 -->
<g id="node18" class="node">
<title>311</title>
<ellipse fill="none" stroke="black" cx="603" cy="-18" rx="27" ry="18"/>
<text text-anchor="middle" x="603" y="-12.95" font-family="Times,serif" font-size="14.00">311</text>
</g>
<!-- 31&#45;&gt;311 -->
<g id="edge17" class="edge">
<title>31&#45;&gt;311</title>
<path fill="none" stroke="black" d="M630.65,-72.76C626.42,-64.55 621.19,-54.37 616.42,-45.09"/>
<polygon fill="black" stroke="black" points="619.68,-43.79 612,-36.49 613.46,-46.99 619.68,-43.79"/>
</g>
<!-- 312 -->
<g id="node19" class="node">
<title>312</title>
<ellipse fill="none" stroke="black" cx="675" cy="-18" rx="27" ry="18"/>
<text text-anchor="middle" x="675" y="-12.95" font-family="Times,serif" font-size="14.00">312</text>
</g>
<!-- 31&#45;&gt;312 -->
<g id="edge18" class="edge">
<title>31&#45;&gt;312</title>
<path fill="none" stroke="black" d="M647.35,-72.76C651.58,-64.55 656.81,-54.37 661.58,-45.09"/>
<polygon fill="black" stroke="black" points="664.54,-46.99 666,-36.49 658.32,-43.79 664.54,-46.99"/>
</g>
<!-- 321 -->
<g id="node21" class="node">
<title>321</title>
<ellipse fill="none" stroke="black" cx="747" cy="-18" rx="27" ry="18"/>
<text text-anchor="middle" x="747" y="-12.95" font-family="Times,serif" font-size="14.00">321</text>
</g>
<!-- 32&#45;&gt;321 -->
<g id="edge20" class="edge">
<title>32&#45;&gt;321</title>
<path fill="none" stroke="black" d="M747,-71.7C747,-64.41 747,-55.73 747,-47.54"/>
<polygon fill="black" stroke="black" points="750.5,-47.62 747,-37.62 743.5,-47.62 750.5,-47.62"/>
</g>
<!-- 322 -->
<g id="node22" class="node">
<title>322</title>
<ellipse fill="none" stroke="black" cx="819" cy="-18" rx="27" ry="18"/>
<text text-anchor="middle" x="819" y="-12.95" font-family="Times,serif" font-size="14.00">322</text>
</g>
<!-- 32&#45;&gt;322 -->
<g id="edge21" class="edge">
<title>32&#45;&gt;322</title>
<path fill="none" stroke="black" d="M761.92,-74.5C771.77,-64.92 784.86,-52.19 796.03,-41.34"/>
<polygon fill="black" stroke="black" points="798.29,-44.02 803.02,-34.54 793.41,-39 798.29,-44.02"/>
</g>
</g>
</svg>
