<?xml version="1.0" encoding="UTF-8" standalone="no"?>
<!DOCTYPE svg PUBLIC "-//W3C//DTD SVG 1.1//EN"
 "http://www.w3.org/Graphics/SVG/1.1/DTD/svg11.dtd">
<!-- Generated by graphviz version 12.1.2 (20240928.0832)
 -->
<!-- Title: g Pages: 1 -->
<svg width="121pt" height="188pt"
 viewBox="0.00 0.00 121.00 188.00" xmlns="http://www.w3.org/2000/svg" xmlns:xlink="http://www.w3.org/1999/xlink">
<g id="graph0" class="graph" transform="scale(1 1) rotate(0) translate(4 184)">
<title>g</title>
<polygon fill="white" stroke="none" points="-4,4 -4,-184 117,-184 117,4 -4,4"/>
<!-- n3 -->
<g id="node1" class="node">
<title>n3</title>
<ellipse fill="none" stroke="pink" cx="68" cy="-162" rx="27" ry="18"/>
<text text-anchor="middle" x="68" y="-156.95" font-family="Times,serif" font-size="14.00">n3</text>
</g>
<!-- n3&#45;&gt;n3 -->
<g id="edge3" class="edge">
<title>n3&#45;&gt;n3</title>
<path fill="none" stroke="pink" d="M87.9,-174.43C100.69,-177.68 113,-173.53 113,-162 113,-153.98 107.05,-149.54 99.12,-148.66"/>
<polygon fill="pink" stroke="pink" points="99.09,-145.15 89.4,-149.45 99.65,-152.13 99.09,-145.15"/>
</g>
<!-- n1 -->
<g id="node2" class="node">
<title>n1</title>
<ellipse fill="none" stroke="purple" cx="27" cy="-90" rx="27" ry="18"/>
<text text-anchor="middle" x="27" y="-84.95" font-family="Times,serif" font-size="14.00">n1</text>
</g>
<!-- n3&#45;&gt;n1 -->
<g id="edge1" class="edge">
<title>n3&#45;&gt;n1</title>
<path fill="none" stroke="red" d="M53.91,-146.5C48.07,-138.32 41.6,-127.84 36.33,-118.2"/>
<polygon fill="red" stroke="red" points="39.56,-116.83 31.87,-109.55 33.34,-120.04 39.56,-116.83"/>
</g>
<!-- n2 -->
<g id="node3" class="node">
<title>n2</title>
<ellipse fill="none" stroke="yellow" cx="68" cy="-18" rx="27" ry="18"/>
<text text-anchor="middle" x="68" y="-12.95" font-family="Times,serif" font-size="14.00">n2</text>
</g>
<!-- n3&#45;&gt;n2 -->
<g id="edge2" class="edge">
<title>n3&#45;&gt;n2</title>
<path fill="none" stroke="blue" d="M65.45,-144.01C67.19,-133.7 70.52,-120.23 72,-108 73.92,-92.12 73.92,-87.88 72,-72 71.02,-63.88 69.22,-55.21 67.61,-47.28"/>
<polygon fill="blue" stroke="blue" points="71.06,-46.64 65.74,-37.48 64.18,-47.96 71.06,-46.64"/>
</g>
<!-- n1&#45;&gt;n3 -->
<g id="edge9" class="edge">
<title>n1&#45;&gt;n3</title>
<path fill="none" stroke="blue" d="M41.03,-105.42C46.92,-113.66 53.47,-124.26 58.77,-133.99"/>
<polygon fill="blue" stroke="blue" points="55.57,-135.42 63.26,-142.71 61.79,-132.22 55.57,-135.42"/>
</g>
<!-- n1&#45;&gt;n1 -->
<g id="edge7" class="edge">
<title>n1&#45;&gt;n1</title>
<path fill="none" stroke="purple" d="M46.9,-102.43C59.69,-105.68 72,-101.53 72,-90 72,-81.98 66.05,-77.54 58.12,-76.66"/>
<polygon fill="purple" stroke="purple" points="58.09,-73.15 48.4,-77.45 58.65,-80.13 58.09,-73.15"/>
</g>
<!-- n1&#45;&gt;n2 -->
<g id="edge8" class="edge">
<title>n1&#45;&gt;n2</title>
<path fill="none" stroke="red" d="M31.05,-72.05C35.25,-63.29 41.42,-52.43 47.6,-42.84"/>
<polygon fill="red" stroke="red" points="50.42,-44.92 53.12,-34.68 44.62,-41 50.42,-44.92"/>
</g>
<!-- n2&#45;&gt;n3 -->
<g id="edge6" class="edge">
<title>n2&#45;&gt;n3</title>
<path fill="none" stroke="red" d="M80.33,-34.13C84.78,-44.63 88.43,-59.02 90,-72 91.92,-87.88 91.92,-92.12 90,-108 88.92,-116.92 86.86,-126.51 84.23,-135.05"/>
<polygon fill="red" stroke="red" points="80.94,-133.85 80.84,-144.45 87.52,-136.23 80.94,-133.85"/>
</g>
<!-- n2&#45;&gt;n1 -->
<g id="edge4" class="edge">
<title>n2&#45;&gt;n1</title>
<path fill="none" stroke="blue" d="M63.83,-36.2C59.63,-44.93 53.51,-55.66 47.39,-65.17"/>
<polygon fill="blue" stroke="blue" points="44.64,-63 41.94,-73.24 50.44,-66.92 44.64,-63"/>
</g>
<!-- n2&#45;&gt;n2 -->
<g id="edge5" class="edge">
<title>n2&#45;&gt;n2</title>
<path fill="none" stroke="yellow" d="M87.9,-30.43C100.69,-33.68 113,-29.53 113,-18 113,-9.98 107.05,-5.54 99.12,-4.66"/>
<polygon fill="yellow" stroke="yellow" points="99.09,-1.15 89.4,-5.45 99.65,-8.13 99.09,-1.15"/>
</g>
</g>
</svg>
