<?xml version="1.0" encoding="UTF-8" standalone="no"?>
<!DOCTYPE svg PUBLIC "-//W3C//DTD SVG 1.1//EN"
 "http://www.w3.org/Graphics/SVG/1.1/DTD/svg11.dtd">
<!-- Generated by graphviz version 12.1.2 (20240928.0832)
 -->
<!-- Title: MasterGraph Pages: 1 -->
<svg width="370pt" height="370pt"
 viewBox="0.00 0.00 369.96 369.96" xmlns="http://www.w3.org/2000/svg" xmlns:xlink="http://www.w3.org/1999/xlink">
<g id="graph0" class="graph" transform="scale(1 1) rotate(0) translate(4 365.96)">
<title>MasterGraph</title>
<defs>
<linearGradient id="graph0_l_0" gradientUnits="userSpaceOnUse" x1="-4" y1="-180.98" x2="365.96" y2="-180.98" >
<stop offset="0" style="stop-color:#d6d6d6;stop-opacity:1.;"/>
<stop offset="1" style="stop-color:#f0f0f0;stop-opacity:1.;"/>
</linearGradient>
</defs>
<polygon fill="url(#graph0_l_0)" stroke="none" points="-4,4 -4,-365.96 365.96,-365.96 365.96,4 -4,4"/>
<!-- 0 -->
<g id="node1" class="node">
<title>0</title>
<ellipse fill="none" stroke="black" cx="18" cy="-164.63" rx="18" ry="18"/>
<text text-anchor="middle" x="18" y="-158.83" font-family="San Francisco" font-size="14.00">G</text>
</g>
<!-- 1 -->
<g id="node2" class="node">
<title>1</title>
<ellipse fill="none" stroke="black" cx="90.76" cy="-159.15" rx="18" ry="18"/>
<text text-anchor="middle" x="90.76" y="-153.35" font-family="San Francisco" font-size="14.00">r</text>
</g>
<!-- 0&#45;&gt;1 -->
<g id="edge1" class="edge">
<title>0&#45;&gt;1</title>
<path fill="none" stroke="black" d="M36.36,-163.24C43.86,-162.68 52.72,-162.01 61.09,-161.38"/>
<polygon fill="black" stroke="black" points="61.19,-164.89 70.9,-160.65 60.66,-157.91 61.19,-164.89"/>
</g>
<!-- 2 -->
<g id="node3" class="node">
<title>2</title>
<ellipse fill="none" stroke="red" cx="147.44" cy="-214.52" rx="18" ry="18"/>
<text text-anchor="middle" x="147.44" y="-208.72" font-family="San Francisco" font-size="14.00">a</text>
</g>
<!-- 1&#45;&gt;2 -->
<g id="edge2" class="edge">
<title>1&#45;&gt;2</title>
<path fill="none" stroke="black" d="M103.91,-171.99C110.63,-178.56 118.98,-186.72 126.56,-194.12"/>
<polygon fill="black" stroke="black" points="123.69,-196.21 133.28,-200.69 128.58,-191.2 123.69,-196.21"/>
</g>
<!-- 3 -->
<g id="node4" class="node">
<title>3</title>
<ellipse fill="none" stroke="black" cx="202.81" cy="-271.2" rx="18" ry="18"/>
<text text-anchor="middle" x="202.81" y="-265.4" font-family="San Francisco" font-size="14.00">p</text>
</g>
<!-- 2&#45;&gt;3 -->
<g id="edge3" class="edge">
<title>2&#45;&gt;3</title>
<path fill="none" stroke="black" d="M160.28,-227.67C166.85,-234.39 175,-242.74 182.41,-250.32"/>
<polygon fill="black" stroke="black" points="179.49,-252.34 188.98,-257.04 184.5,-247.44 179.49,-252.34"/>
</g>
<!-- 7 -->
<g id="node7" class="node">
<title>7</title>
<ellipse fill="none" stroke="black" cx="194.46" cy="-167.5" rx="18" ry="18"/>
<text text-anchor="middle" x="194.46" y="-161.7" font-family="San Francisco" font-size="14.00">s</text>
</g>
<!-- 2&#45;&gt;7 -->
<g id="edge6" class="edge">
<title>2&#45;&gt;7</title>
<path fill="none" stroke="black" d="M160.29,-201.67C164.44,-197.53 169.14,-192.82 173.71,-188.25"/>
<polygon fill="black" stroke="black" points="175.96,-190.95 180.56,-181.4 171.01,-186 175.96,-190.95"/>
</g>
<!-- 4 -->
<g id="node5" class="node">
<title>4</title>
<ellipse fill="none" stroke="black" cx="197.34" cy="-343.96" rx="18" ry="18"/>
<text text-anchor="middle" x="197.34" y="-338.16" font-family="San Francisco" font-size="14.00">h</text>
</g>
<!-- 3&#45;&gt;4 -->
<g id="edge4" class="edge">
<title>3&#45;&gt;4</title>
<path fill="none" stroke="black" d="M201.43,-289.56C200.87,-297.06 200.2,-305.92 199.57,-314.29"/>
<polygon fill="black" stroke="black" points="196.09,-313.86 198.83,-324.1 203.07,-314.39 196.09,-313.86"/>
</g>
<!-- 5 -->
<g id="node6" class="node">
<title>5</title>
<ellipse fill="none" stroke="black" cx="92.84" cy="-269.12" rx="18.2" ry="18"/>
<text text-anchor="middle" x="92.84" y="-263.32" font-family="San Francisco" font-size="14.00">M</text>
</g>
<!-- 5&#45;&gt;2 -->
<g id="edge5" class="edge">
<title>5&#45;&gt;2</title>
<path fill="none" stroke="black" d="M105.78,-256.18C112.04,-249.93 119.7,-242.27 126.74,-235.23"/>
<polygon fill="black" stroke="black" points="128.93,-237.99 133.52,-228.44 123.98,-233.04 128.93,-237.99"/>
</g>
<!-- 8 -->
<g id="node8" class="node">
<title>8</title>
<ellipse fill="none" stroke="black" cx="245.78" cy="-116.19" rx="18" ry="18"/>
<text text-anchor="middle" x="245.78" y="-110.39" font-family="San Francisco" font-size="14.00">t</text>
</g>
<!-- 7&#45;&gt;8 -->
<g id="edge7" class="edge">
<title>7&#45;&gt;8</title>
<path fill="none" stroke="black" d="M207.41,-154.55C212.8,-149.16 219.19,-142.77 225.19,-136.77"/>
<polygon fill="black" stroke="black" points="227.35,-139.57 231.94,-130.02 222.4,-134.62 227.35,-139.57"/>
</g>
<!-- 9 -->
<g id="node9" class="node">
<title>9</title>
<ellipse fill="none" stroke="black" cx="295.17" cy="-66.79" rx="18" ry="18"/>
<text text-anchor="middle" x="295.17" y="-60.99" font-family="San Francisco" font-size="14.00">e</text>
</g>
<!-- 8&#45;&gt;9 -->
<g id="edge8" class="edge">
<title>8&#45;&gt;9</title>
<path fill="none" stroke="black" d="M258.76,-103.21C263.48,-98.48 268.96,-93.01 274.2,-87.77"/>
<polygon fill="black" stroke="black" points="276.44,-90.47 281.04,-80.93 271.49,-85.52 276.44,-90.47"/>
</g>
<!-- 10 -->
<g id="node10" class="node">
<title>10</title>
<ellipse fill="none" stroke="black" cx="343.96" cy="-18" rx="18" ry="18"/>
<text text-anchor="middle" x="343.96" y="-12.2" font-family="San Francisco" font-size="14.00">r</text>
</g>
<!-- 9&#45;&gt;10 -->
<g id="edge9" class="edge">
<title>9&#45;&gt;10</title>
<path fill="none" stroke="black" d="M308.25,-53.72C312.8,-49.16 318.04,-43.93 323.07,-38.89"/>
<polygon fill="black" stroke="black" points="325.52,-41.39 330.12,-31.84 320.57,-36.44 325.52,-41.39"/>
</g>
</g>
</svg>
